<?xml version="1.0" encoding="utf-8"?>
<!-- Generator: Adobe Illustrator 26.3.1, SVG Export Plug-In . SVG Version: 6.00 Build 0)  -->
<svg version="1.1" id="Layer_1" xmlns="http://www.w3.org/2000/svg" xmlns:xlink="http://www.w3.org/1999/xlink" x="0px" y="0px"
	 viewBox="0 0 152.4 85.6" style="enable-background:new 0 0 152.4 85.6;" xml:space="preserve">
<style type="text/css">
	.st0{fill:#000111;}
</style>
<g>
	<path class="st0" d="M0,40.4V0.6h8.4v32.8h16.1v7H0z"/>
	<path class="st0" d="M67.6,20.5c0,6.6-1.6,11.7-4.9,15.2c-3.3,3.5-8,5.3-14,5.3s-10.8-1.8-14-5.3s-4.9-8.6-4.9-15.2
		c0-6.6,1.6-11.7,4.9-15.2c3.3-3.5,8-5.2,14.1-5.2s10.8,1.8,14,5.3C66,8.8,67.6,13.9,67.6,20.5z M38.6,20.5c0,4.4,0.8,7.8,2.5,10
		s4.2,3.4,7.6,3.4c6.7,0,10.1-4.5,10.1-13.4c0-9-3.3-13.4-10-13.4c-3.4,0-5.9,1.1-7.6,3.4S38.6,16,38.6,20.5z"/>
	<path class="st0" d="M91,18.1h15.8v20.6c-2.6,0.8-5,1.4-7.2,1.8C97.3,40.8,95,41,92.6,41c-6,0-10.6-1.8-13.8-5.3
		c-3.2-3.5-4.8-8.6-4.8-15.2c0-6.4,1.8-11.4,5.5-15c3.7-3.6,8.8-5.4,15.3-5.4c4.1,0,8,0.8,11.8,2.5l-2.8,6.8
		C101,7.8,98,7.1,94.9,7.1c-3.6,0-6.6,1.2-8.8,3.7c-2.2,2.5-3.3,5.7-3.3,9.9c0,4.3,0.9,7.6,2.7,9.9s4.3,3.4,7.7,3.4
		c1.8,0,3.5-0.2,5.4-0.5v-8.3H91V18.1z"/>
	<path class="st0" d="M152.4,20.5c0,6.6-1.6,11.7-4.9,15.2c-3.3,3.5-8,5.3-14,5.3c-6.1,0-10.8-1.8-14-5.3c-3.3-3.5-4.9-8.6-4.9-15.2
		c0-6.6,1.6-11.7,4.9-15.2c3.3-3.5,8-5.2,14.1-5.2s10.8,1.8,14,5.3C150.8,8.8,152.4,13.9,152.4,20.5z M123.3,20.5
		c0,4.4,0.8,7.8,2.5,10s4.2,3.4,7.6,3.4c6.7,0,10.1-4.5,10.1-13.4c0-9-3.3-13.4-10-13.4c-3.4,0-5.9,1.1-7.6,3.4
		C124.2,12.7,123.3,16,123.3,20.5z"/>
</g>
<g>
	<path class="st0" d="M55.1,85.2h-3.9V69.5H33.6v15.7h-3.9V51.8h3.9V66h17.6V51.8h3.9V85.2z"/>
	<path class="st0" d="M74.2,85.6c-3.7,0-6.6-1.1-8.7-3.4c-2.1-2.2-3.2-5.4-3.2-9.4c0-4,1-7.2,3-9.6c2-2.4,4.6-3.6,8-3.6
		c3.1,0,5.6,1,7.4,3.1c1.8,2.1,2.7,4.8,2.7,8.2v2.4H66.2c0.1,2.9,0.8,5.2,2.2,6.7c1.4,1.5,3.4,2.3,5.9,2.3c2.7,0,5.3-0.6,8-1.7V84
		c-1.3,0.6-2.6,1-3.8,1.2C77.3,85.5,75.9,85.6,74.2,85.6z M73.2,62.9c-2,0-3.6,0.7-4.8,2c-1.2,1.3-1.9,3.1-2.1,5.4h13.1
		c0-2.4-0.5-4.2-1.6-5.5C76.6,63.5,75.1,62.9,73.2,62.9z"/>
	<path class="st0" d="M101.2,59.7c1.1,0,2.1,0.1,3,0.3l-0.5,3.5c-1-0.2-1.9-0.3-2.7-0.3c-2,0-3.8,0.8-5.2,2.5
		c-1.4,1.6-2.2,3.7-2.2,6.1v13.4h-3.8v-25h3.1l0.4,4.6h0.2c0.9-1.6,2-2.9,3.4-3.8C98.2,60.2,99.7,59.7,101.2,59.7z"/>
	<path class="st0" d="M119.4,85.6c-3.7,0-6.6-1.1-8.7-3.4c-2.1-2.2-3.2-5.4-3.2-9.4c0-4,1-7.2,3-9.6c2-2.4,4.6-3.6,8-3.6
		c3.1,0,5.6,1,7.4,3.1c1.8,2.1,2.7,4.8,2.7,8.2v2.4h-17.2c0.1,2.9,0.8,5.2,2.2,6.7c1.4,1.5,3.4,2.3,5.9,2.3c2.7,0,5.3-0.6,8-1.7V84
		c-1.3,0.6-2.6,1-3.8,1.2C122.6,85.5,121.1,85.6,119.4,85.6z M118.4,62.9c-2,0-3.6,0.7-4.8,2c-1.2,1.3-1.9,3.1-2.1,5.4h13.1
		c0-2.4-0.5-4.2-1.6-5.5C121.9,63.5,120.4,62.9,118.4,62.9z"/>
</g>
</svg>
